<svg width="37" height="36" viewBox="0 0 37 36" fill="none" xmlns="http://www.w3.org/2000/svg">
<path d="M29.5921 6.84155H26.1351C24.9896 6.84155 24.061 7.77011 24.061 8.91562C24.061 10.0611 24.9896 10.9897 26.1351 10.9897H27.0656C28.211 10.9897 29.1396 11.9183 29.1396 13.0638C29.1396 14.2092 28.2111 15.1378 27.0656 15.1378H24.1836C23.0382 15.1378 22.1096 16.0664 22.1096 17.2119C22.1096 18.3574 23.0381 19.286 24.1836 19.286H34.1257" stroke="#AEE941" stroke-width="1.6" stroke-miterlimit="10"/>
<path d="M18.1251 33.9994C26.9613 33.9994 34.1244 26.8363 34.1244 18.0001C34.1244 9.16388 26.9613 2.00073 18.1251 2.00073C9.28888 2.00073 2.12573 9.16388 2.12573 18.0001C2.12573 26.8363 9.28888 33.9994 18.1251 33.9994Z" stroke="#AEE941" stroke-width="1.6" stroke-miterlimit="10"/>
<path d="M18.1252 30.0161C11.4995 30.0161 6.10907 24.6257 6.10907 18C6.10907 11.3743 11.4995 5.98389 18.1252 5.98389" stroke="#AEE941" stroke-width="1.6" stroke-miterlimit="10"/>
<path d="M18.1252 26.033C13.6958 26.033 10.0923 22.4295 10.0923 18.0001C10.0923 13.5708 13.6958 9.96729 18.1252 9.96729" stroke="#AEE941" stroke-width="1.6" stroke-miterlimit="10"/>
<path d="M18.1251 22.0494C15.8921 22.0494 14.0754 20.2328 14.0754 17.9998C14.0754 15.7668 15.8921 13.9502 18.1251 13.9502" stroke="#AEE941" stroke-width="1.6" stroke-miterlimit="10"/>
<path d="M18.1265 27.4172H21.0727C22.2182 27.4172 23.1468 26.4886 23.1468 25.3431C23.1468 24.1977 22.2182 23.269 21.0727 23.269H18.1265" stroke="#AEE941" stroke-width="1.6" stroke-miterlimit="10"/>
<path d="M33.2375 23.269H30.3081C29.1627 23.269 28.2341 24.1976 28.2341 25.3431C28.2341 26.4886 29.1626 27.4172 30.3081 27.4172H31.062" stroke="#AEE941" stroke-width="1.6" stroke-miterlimit="10"/>
<path d="M18.1257 2.00073V33.9994" stroke="#AEE941" stroke-width="1.6" stroke-miterlimit="10"/>
</svg>
