<svg width="36" height="36" viewBox="0 0 36 36" fill="none" xmlns="http://www.w3.org/2000/svg">
<mask id="mask0_17_1962" style="mask-type:luminance" maskUnits="userSpaceOnUse" x="0" y="0" width="36" height="36">
<path d="M0 3.8147e-06H36V36H0V3.8147e-06Z" fill="currentColor"/>
</mask>
<g mask="url(#mask0_17_1962)">
<path d="M30.7752 22.1714C30.7752 29.227 25.0555 34.9453 18 34.9453C10.9445 34.9453 5.22482 29.227 5.22482 22.1714C5.22482 19.7447 5.90123 17.4758 7.07713 15.5438C7.07713 15.5438 8.70367 19.0156 11.4986 17.8935C12.5973 17.4523 13.8485 16.2141 12.6688 14.172C11.3965 11.9697 12.1456 9.02074 14.8756 7.66877C18.0616 6.09082 17.9831 1.9485 17.9831 1.9485C17.9831 1.9485 22.9954 5.07593 21.2403 9.15996C20.2273 11.517 20.1065 14.3741 22.2128 15.006C24.7344 15.7625 26.0654 12.2645 26.0654 12.2645C28.9391 14.6062 30.7752 18.1745 30.7752 22.1714Z" stroke="white" stroke-width="1.6" stroke-miterlimit="10"/>
<path d="M23.3805 29.5668C23.3805 31.0526 22.778 32.397 21.8045 33.3705C20.831 34.3439 19.4855 34.9453 17.9998 34.9453C15.0294 34.9453 12.6211 32.5383 12.62 29.5679V29.5658C12.6062 28.4456 12.8485 27.1214 13.5223 25.5847L15.7223 26.2276C15.803 21.9744 19.7576 20.477 19.7576 20.477C19.9 21.8766 20.2614 23.2306 21.0106 24.4549C21.5558 25.3445 22.0712 26.1065 22.6674 26.9599C23.1839 27.7006 23.3848 28.6784 23.3805 29.5668Z" stroke="currentColor" stroke-width="1.6" stroke-miterlimit="10"/>
</g>
</svg>
