<svg width="37" height="36" viewBox="0 0 37 36" fill="none" xmlns="http://www.w3.org/2000/svg">
<g clip-path="url(#clip0_79_5078)">
<path d="M35.5703 24.7781H1.67969V29.2968H35.5703V24.7781Z" stroke="#AEE941" stroke-width="1.6" stroke-miterlimit="10" stroke-linecap="round" stroke-linejoin="round"/>
<path d="M13.5487 8.9913C14.7913 7.58822 16.6056 6.70312 18.625 6.70312C20.6444 6.70312 22.4586 7.58822 23.7013 8.9913C23.8893 8.97211 24.0802 8.96248 24.2735 8.96248C27.1621 8.96248 29.5474 11.1354 29.8818 13.9348C31.8977 14.7979 33.3109 16.8003 33.3109 19.1297C33.3109 22.2471 30.7799 24.7781 27.6625 24.7781H9.5875C6.47013 24.7781 3.93909 22.2471 3.93909 19.1297C3.93909 16.8003 5.35237 14.7979 7.36823 13.9348C7.70263 11.1355 10.0879 8.96248 12.9766 8.96248C13.1697 8.96255 13.3606 8.97211 13.5487 8.9913Z" stroke="#AEE941" stroke-width="1.6" stroke-miterlimit="10" stroke-linecap="round" stroke-linejoin="round"/>
<path d="M14.1062 14.6109C14.1062 13.9873 14.6123 13.4812 15.2359 13.4812" stroke="#AEE941" stroke-width="1.6" stroke-miterlimit="10" stroke-linecap="round" stroke-linejoin="round"/>
<path d="M9.58752 19.1297C9.58752 18.5061 10.0936 18 10.7172 18" stroke="#AEE941" stroke-width="1.6" stroke-miterlimit="10" stroke-linecap="round" stroke-linejoin="round"/>
</g>
<defs>
<clipPath id="clip0_79_5078">
<rect width="36" height="36" fill="white" transform="translate(0.625)"/>
</clipPath>
</defs>
</svg>
