<svg width="37" height="36" viewBox="0 0 37 36" fill="none" xmlns="http://www.w3.org/2000/svg">
<g clip-path="url(#clip0_79_5016)">
<path d="M30.4855 11.9676C29.7018 9.36295 27.3132 7.45312 24.4531 7.45312C22.619 7.45312 20.9809 8.24569 19.8251 9.49247C18.9344 7.07618 16.6318 5.34375 13.9062 5.34375C10.4113 5.34375 7.57812 8.17692 7.57812 11.6719C4.08317 11.6719 1.17969 14.505 1.17969 18C1.17969 20.8601 3.15983 23.2487 5.76448 24.0324C6.54819 26.637 8.93677 28.5469 11.7969 28.5469C13.631 28.5469 15.2692 27.7543 16.4249 26.5075C17.3156 28.9238 19.6182 30.6562 22.3437 30.6562C25.8387 30.6562 28.6719 27.8231 28.6719 24.3281C32.1668 24.3281 35.0703 21.495 35.0703 18C35.0703 15.1399 33.0902 12.7513 30.4855 11.9676Z" stroke="#41E9D5" stroke-width="1.6" stroke-miterlimit="10" stroke-linecap="round" stroke-linejoin="round"/>
<path d="M35.0703 3.16406C35.0703 4.329 34.1259 5.27344 32.9609 5.27344C31.796 5.27344 30.8516 4.329 30.8516 3.16406C30.8516 1.99912 31.796 1.05469 32.9609 1.05469C34.1259 1.05469 35.0703 1.99912 35.0703 3.16406Z" stroke="#41E9D5" stroke-width="1.6" stroke-miterlimit="10" stroke-linecap="round" stroke-linejoin="round"/>
<path d="M5.39856 32.8359C5.39856 34.0009 4.45412 34.9453 3.28918 34.9453C2.12425 34.9453 1.17981 34.0009 1.17981 32.8359C1.17981 31.671 2.12425 30.7266 3.28918 30.7266C4.45412 30.7266 5.39856 31.671 5.39856 32.8359Z" stroke="#41E9D5" stroke-width="1.6" stroke-miterlimit="10" stroke-linecap="round" stroke-linejoin="round"/>
<path d="M19.1797 18C19.1797 18.5825 18.7075 19.0547 18.125 19.0547C17.5425 19.0547 17.0703 18.5825 17.0703 18C17.0703 17.4175 17.5425 16.9453 18.125 16.9453C18.7075 16.9453 19.1797 17.4175 19.1797 18Z" fill="#41E9D5"/>
<path d="M33.9453 28.5469C33.9453 29.1293 33.4731 29.6016 32.8906 29.6016C32.3082 29.6016 31.8359 29.1293 31.8359 28.5469C31.8359 27.9644 32.3082 27.4922 32.8906 27.4922C33.4731 27.4922 33.9453 27.9644 33.9453 28.5469Z" fill="#41E9D5"/>
<path d="M4.41406 7.45312C4.41406 8.03559 3.94184 8.50781 3.35938 8.50781C2.77691 8.50781 2.30469 8.03559 2.30469 7.45312C2.30469 6.87066 2.77691 6.39844 3.35938 6.39844C3.94184 6.39844 4.41406 6.87066 4.41406 7.45312Z" fill="#41E9D5"/>
<path d="M14.9609 13.7812C14.9609 14.3637 14.4887 14.8359 13.9062 14.8359C13.3238 14.8359 12.8516 14.3637 12.8516 13.7812C12.8516 13.1988 13.3238 12.7266 13.9062 12.7266C14.4887 12.7266 14.9609 13.1988 14.9609 13.7812Z" fill="#41E9D5"/>
<path d="M23.3984 22.2188C23.3984 22.8012 22.9262 23.2734 22.3438 23.2734C21.7613 23.2734 21.2891 22.8012 21.2891 22.2188C21.2891 21.6363 21.7613 21.1641 22.3438 21.1641C22.9262 21.1641 23.3984 21.6363 23.3984 22.2188Z" fill="#41E9D5"/>
<path d="M25.5078 13.7812C25.5078 14.3637 25.0356 14.8359 24.4531 14.8359C23.8707 14.8359 23.3984 14.3637 23.3984 13.7812C23.3984 13.1988 23.8707 12.7266 24.4531 12.7266C25.0356 12.7266 25.5078 13.1988 25.5078 13.7812Z" fill="#41E9D5"/>
<path d="M12.8516 22.2188C12.8516 22.8012 12.3793 23.2734 11.7969 23.2734C11.2144 23.2734 10.7422 22.8012 10.7422 22.2188C10.7422 21.6363 11.2144 21.1641 11.7969 21.1641C12.3793 21.1641 12.8516 21.6363 12.8516 22.2188Z" fill="#41E9D5"/>
<path d="M8.63281 18C8.63281 18.5825 8.16059 19.0547 7.57812 19.0547C6.99566 19.0547 6.52344 18.5825 6.52344 18C6.52344 17.4175 6.99566 16.9453 7.57812 16.9453C8.16059 16.9453 8.63281 17.4175 8.63281 18Z" fill="#41E9D5"/>
<path d="M29.7266 18C29.7266 18.5825 29.2543 19.0547 28.6719 19.0547C28.0894 19.0547 27.6172 18.5825 27.6172 18C27.6172 17.4175 28.0894 16.9453 28.6719 16.9453C29.2543 16.9453 29.7266 17.4175 29.7266 18Z" fill="#41E9D5"/>
<path d="M14.9609 32.7656C14.9609 33.3481 14.4887 33.8203 13.9062 33.8203C13.3238 33.8203 12.8516 33.3481 12.8516 32.7656C12.8516 32.1832 13.3238 31.7109 13.9062 31.7109C14.4887 31.7109 14.9609 32.1832 14.9609 32.7656Z" fill="#41E9D5"/>
<path d="M21.2891 3.23438C21.2891 3.81684 20.8168 4.28906 20.2344 4.28906C19.6519 4.28906 19.1797 3.81684 19.1797 3.23438C19.1797 2.65191 19.6519 2.17969 20.2344 2.17969C20.8168 2.17969 21.2891 2.65191 21.2891 3.23438Z" fill="#41E9D5"/>
</g>
<defs>
<clipPath id="clip0_79_5016">
<rect width="36" height="36" fill="white" transform="translate(0.125)"/>
</clipPath>
</defs>
</svg>
