<svg width="37" height="36" viewBox="0 0 37 36" fill="none" xmlns="http://www.w3.org/2000/svg">
<mask id="mask0_58_4351" style="mask-type:luminance" maskUnits="userSpaceOnUse" x="0" y="0" width="37" height="36">
<path d="M0.875 3.8147e-06H36.875V36H0.875V3.8147e-06Z" fill="white"/>
</mask>
<g mask="url(#mask0_58_4351)">
<path d="M31.6502 22.1714C31.6502 29.227 25.9305 34.9453 18.875 34.9453C11.8194 34.9453 6.09979 29.227 6.09979 22.1714C6.09979 19.7447 6.7762 17.4758 7.9521 15.5438C7.9521 15.5438 9.57864 19.0156 12.3736 17.8935C13.4723 17.4523 14.7235 16.2141 13.5438 14.172C12.2715 11.9697 13.0206 9.02074 15.7505 7.66877C18.9365 6.09082 18.8581 1.9485 18.8581 1.9485C18.8581 1.9485 23.8704 5.07593 22.1152 9.15996C21.1022 11.517 20.9814 14.3741 23.0878 15.006C25.6094 15.7625 26.9404 12.2645 26.9404 12.2645C29.8141 14.6062 31.6502 18.1745 31.6502 22.1714Z" stroke="#E97C41" stroke-width="1.6" stroke-miterlimit="10"/>
<path d="M24.2555 29.5668C24.2555 31.0526 23.653 32.397 22.6794 33.3705C21.706 34.3439 20.3605 34.9453 18.8747 34.9453C15.9043 34.9453 13.4961 32.5383 13.495 29.5679V29.5658C13.4812 28.4456 13.7234 27.1214 14.3972 25.5847L16.5973 26.2276C16.678 21.9744 20.6326 20.477 20.6326 20.477C20.7749 21.8766 21.1363 23.2306 21.8855 24.4549C22.4307 25.3445 22.9462 26.1065 23.5424 26.9599C24.0589 27.7006 24.2598 28.6784 24.2555 29.5668Z" stroke="#E97C41" stroke-width="1.6" stroke-miterlimit="10"/>
</g>
</svg>
