<svg width="37" height="36" viewBox="0 0 37 36" fill="none" xmlns="http://www.w3.org/2000/svg">
<path d="M20.6742 16.4287C18.2241 13.9786 17.2562 10.4133 18.131 7.06056L19.2068 2.9375L16.1107 7.17194C13.2511 11.0829 13.6688 16.4944 17.0946 19.9202C19.5601 22.3857 20.5345 25.973 19.6551 29.347L18.6867 33.0625L21.5909 29.1769C24.4958 25.2902 24.1054 19.8599 20.6742 16.4287Z" stroke="#4296DB" stroke-width="1.6" stroke-miterlimit="10" stroke-linecap="round" stroke-linejoin="round"/>
<path d="M28.8708 13.0701C26.9122 11.1116 26.0239 8.32549 26.4872 5.59474L26.9381 2.93742L25.3004 5.25392C22.8745 8.68518 23.2732 13.3651 26.2445 16.3365C28.2117 18.3036 29.1097 21.0986 28.6565 23.8434L28.2725 26.1697L29.7497 24.1298C32.2134 20.7279 31.8409 16.0402 28.8708 13.0701Z" stroke="#4296DB" stroke-width="1.6" stroke-miterlimit="10" stroke-linecap="round" stroke-linejoin="round"/>
<path d="M11.5286 19.9629C9.57001 18.0044 8.6817 15.2183 9.14501 12.4876L9.59589 9.83025L7.95814 12.1468C5.53226 15.578 5.93095 20.2579 8.90233 23.2293C10.8695 25.1964 11.7675 27.9914 11.3143 30.7362L10.9303 33.0625L12.4075 31.0226C14.8712 27.6207 14.4986 22.933 11.5286 19.9629Z" stroke="#4296DB" stroke-width="1.6" stroke-miterlimit="10" stroke-linecap="round" stroke-linejoin="round"/>
</svg>
