<svg width="37" height="36" viewBox="0 0 37 36" fill="none" xmlns="http://www.w3.org/2000/svg">
<path d="M11.8258 29.5776C10.9213 30.9398 9.89843 32.225 8.76727 33.4155" stroke="#E97C41" stroke-width="1.6" stroke-miterlimit="10" stroke-linecap="round" stroke-linejoin="round"/>
<path d="M33.7905 33.4155H2.95947C8.32817 29.3655 11.8473 23.2119 12.5701 16.5259L12.6182 16.0811H24.1318L24.1799 16.5259C24.9027 23.2119 28.4218 29.3655 33.7905 33.4155Z" stroke="#E97C41" stroke-width="1.6" stroke-miterlimit="10" stroke-linecap="round" stroke-linejoin="round"/>
<path d="M27.9829 33.4155C26.8516 32.2249 25.8286 30.9397 24.9241 29.5776" stroke="#E97C41" stroke-width="1.6" stroke-miterlimit="10" stroke-linecap="round" stroke-linejoin="round"/>
<path d="M18.375 29.5776V33.4155" stroke="#E97C41" stroke-width="1.6" stroke-miterlimit="10" stroke-linecap="round" stroke-linejoin="round"/>
<path d="M24.8002 20.1273C23.2947 20.646 22.213 22.1391 22.213 23.8208C22.213 24.8806 21.3538 25.7397 20.294 25.7397C19.2342 25.7397 18.3751 24.8806 18.3751 23.8208C18.3751 21.7012 16.6568 19.9189 14.5372 19.9189H11.9579" stroke="#E97C41" stroke-width="1.6" stroke-miterlimit="10" stroke-linecap="round" stroke-linejoin="round"/>
<path d="M20.2939 16.0811V14.1621C20.2939 12.0425 22.0122 10.2603 24.1318 10.2603H27.9697C29.0295 10.2603 29.8887 9.40108 29.8887 8.34131C29.8887 7.28154 29.0295 6.42236 27.9697 6.42236H24.1318C24.1318 6.04907 23.6788 4.08522 21.7332 4.60026C21.0829 3.40514 19.8314 2.58447 18.375 2.58447C16.9186 2.58447 15.6671 3.40514 15.0168 4.60026C13.0647 4.08349 12.6182 6.01983 12.6182 6.42236H8.78027C7.7205 6.42236 6.86133 7.28154 6.86133 8.34131C6.86133 9.40108 7.7205 10.2603 8.78027 10.2603H12.6182C14.7378 10.2603 16.4561 12.0425 16.4561 14.1621V16.0811" stroke="#E97C41" stroke-width="1.6" stroke-miterlimit="10" stroke-linecap="round" stroke-linejoin="round"/>
<path d="M7.8208 14.1621C7.8208 14.692 7.39121 15.1216 6.86133 15.1216C6.33144 15.1216 5.90186 14.692 5.90186 14.1621C5.90186 13.6322 6.33144 13.2026 6.86133 13.2026C7.39121 13.2026 7.8208 13.6322 7.8208 14.1621Z" fill="#E97C41"/>
<path d="M32.7671 18C32.7671 18.5299 32.3375 18.9595 31.8076 18.9595C31.2777 18.9595 30.8481 18.5299 30.8481 18C30.8481 17.4701 31.2777 17.0405 31.8076 17.0405C32.3375 17.0405 32.7671 17.4701 32.7671 18Z" fill="#E97C41"/>
<path d="M30.8481 14.1621C30.8481 14.692 30.4186 15.1216 29.8887 15.1216C29.3588 15.1216 28.9292 14.692 28.9292 14.1621C28.9292 13.6322 29.3588 13.2026 29.8887 13.2026C30.4186 13.2026 30.8481 13.6322 30.8481 14.1621Z" fill="#E97C41"/>
<path d="M5.90186 18C5.90186 18.5299 5.47227 18.9595 4.94238 18.9595C4.4125 18.9595 3.98291 18.5299 3.98291 18C3.98291 17.4701 4.4125 17.0405 4.94238 17.0405C5.47227 17.0405 5.90186 17.4701 5.90186 18Z" fill="#E97C41"/>
</svg>
