<svg width="37" height="36" viewBox="0 0 37 36" fill="none" xmlns="http://www.w3.org/2000/svg">
<path d="M10.713 19.045C5.88005 20.4221 2.62109 23.0216 2.62109 26.002C2.62109 30.4212 9.78626 34.0039 18.625 34.0039C27.4637 34.0039 34.6289 30.4212 34.6289 26.002C34.6289 23.0216 31.37 20.4221 26.537 19.045" stroke="#4296DB" stroke-width="1.51111" stroke-miterlimit="10"/>
<path d="M10.7748 19.4589C8.2216 20.561 6.60547 22.191 6.60547 24.0098C6.60547 27.3289 11.9868 30.0195 18.625 30.0195C25.2632 30.0195 30.6445 27.3289 30.6445 24.0098C30.6445 22.191 29.0285 20.561 26.4753 19.4589" stroke="#4296DB" stroke-width="1.51111" stroke-miterlimit="10"/>
<path d="M25.3991 13.8605L18.625 2.90254L11.8509 13.8605C11.0922 15.0808 10.6528 16.5203 10.6528 18.0629C10.6528 22.4659 14.222 26.0352 18.625 26.0352C23.028 26.0352 26.5972 22.4659 26.5972 18.0629C26.5972 16.5203 26.1578 15.0808 25.3991 13.8605Z" stroke="#4296DB" stroke-width="1.51111" stroke-miterlimit="10"/>
</svg>
