<svg width="37" height="36" viewBox="0 0 37 36" fill="none" xmlns="http://www.w3.org/2000/svg">
<path d="M23.2917 13.0833C23.2917 10.3679 25.4929 8.16663 28.2084 8.16663C30.9238 8.16663 33.125 10.3679 33.125 13.0833C33.125 15.7987 30.9238 18 28.2084 18H8.625" stroke="#41E9D5" stroke-width="1.42222" stroke-miterlimit="10" stroke-linecap="round" stroke-linejoin="round"/>
<path d="M9.33331 8.16656C9.33331 5.45119 11.5346 3.24988 14.25 3.24988C16.9654 3.24988 19.1666 5.45119 19.1666 8.16656C19.1666 10.882 16.9654 13.0833 14.25 13.0833H3.625" stroke="#41E9D5" stroke-width="1.42222" stroke-miterlimit="10" stroke-linecap="round" stroke-linejoin="round"/>
<path d="M18.375 27.8333C18.375 30.5487 20.5762 32.75 23.2917 32.75C26.0071 32.75 28.2083 30.5487 28.2083 27.8333C28.2083 25.1179 26.0071 22.9166 23.2917 22.9166H3.625" stroke="#41E9D5" stroke-width="1.42222" stroke-miterlimit="10" stroke-linecap="round" stroke-linejoin="round"/>
</svg>
